<svg width="21" height="20" viewBox="0 0 21 20" fill="none" xmlns="http://www.w3.org/2000/svg">
<path d="M9.95424 0.00434043C9.52007 0.0437398 9.13351 0.357549 9.03013 0.811215L8.4596 3.30556L5.67121 6.37766C5.33075 6.75202 5.14286 7.23847 5.14286 7.74237V17.1599C5.14286 18.2871 6.06343 19.2 7.2 19.2H15.4607C16.2229 19.2 16.9129 18.755 17.2225 18.0644L20.3103 11.1731C20.482 10.7916 20.5714 10.378 20.5714 9.95978V8.9995C20.5714 7.87745 19.6457 6.9594 18.5143 6.9594H11.3143C11.3143 6.9594 12.3429 4.54115 12.3429 2.73975C12.3429 1.09441 11.2756 0.3743 10.3962 0.0601244C10.2494 0.00733682 10.099 -0.00879271 9.95424 0.00434043ZM1.54286 6.9594C0.6912 6.9594 0 7.64488 0 8.48948V17.6699C0 18.5145 0.6912 19.2 1.54286 19.2C2.39451 19.2 3.08571 18.5145 3.08571 17.6699V8.48948C3.08571 7.64488 2.39451 6.9594 1.54286 6.9594Z" fill="#19ECDF"/>
</svg>
