<svg width="24" height="24" viewBox="0 0 24 24" fill="none" xmlns="http://www.w3.org/2000/svg">
<path d="M11.9542 2.18173C11.5201 2.22113 11.1335 2.53493 11.0301 2.9886L10.4596 5.48294L7.67121 8.55504C7.33075 8.9294 7.14286 9.41585 7.14286 9.91976V19.3373C7.14286 20.4644 8.06343 21.3774 9.2 21.3774H17.4607C18.2229 21.3774 18.9129 20.9324 19.2225 20.2418L22.3103 13.3505C22.482 12.969 22.5714 12.5554 22.5714 12.1372V11.1769C22.5714 10.0548 21.6457 9.13679 20.5143 9.13679H13.3143C13.3143 9.13679 14.3429 6.71854 14.3429 4.91713C14.3429 3.27179 13.2756 2.55168 12.3962 2.23751C12.2494 2.18472 12.099 2.16859 11.9542 2.18173ZM3.54286 9.13679C2.6912 9.13679 2 9.82226 2 10.6669V19.8473C2 20.6919 2.6912 21.3774 3.54286 21.3774C4.39451 21.3774 5.08571 20.6919 5.08571 19.8473V10.6669C5.08571 9.82226 4.39451 9.13679 3.54286 9.13679Z" fill="#19ECDF"/>
</svg>
