<svg width="24" height="24" viewBox="0 0 24 24" fill="none" xmlns="http://www.w3.org/2000/svg">
<path fill-rule="evenodd" clip-rule="evenodd" d="M19.2204 21.5853C17.2113 23.1012 14.7106 24 12 24C9.36 24 6.91904 23.1474 4.9375 21.7025C5.26101 21.33 5.45684 20.8437 5.45684 20.3116C5.45684 19.1396 4.50674 18.1895 3.33474 18.1895C2.83427 18.1895 2.37426 18.3627 2.01142 18.6525C0.740752 16.7485 0 14.4607 0 12C0 9.60866 0.699571 7.38064 1.90521 5.50944C2.28237 5.85341 2.78406 6.06316 3.33474 6.06316C4.50674 6.06316 5.45684 5.11306 5.45684 3.94105C5.45684 3.33534 5.20307 2.7889 4.79605 2.40225C6.80235 0.893916 9.29683 0 12 0C14.7685 0 17.3181 0.937629 19.3485 2.51264C19.0051 2.88967 18.7958 3.39092 18.7958 3.94105C18.7958 5.11306 19.7459 6.06316 20.9179 6.06316C21.3913 6.06316 21.8285 5.90813 22.1815 5.64608C23.3339 7.4887 24 9.6666 24 12C24 14.4078 23.2908 16.65 22.0699 18.5291C21.7381 18.3142 21.3426 18.1895 20.9179 18.1895C19.7459 18.1895 18.7958 19.1396 18.7958 20.3116C18.7958 20.7895 18.9538 21.2306 19.2204 21.5853Z" fill="white"/>
<path d="M11.8736 2.52649C6.64165 2.52649 2.39996 6.76817 2.39996 12.0002C2.39996 17.2322 6.64165 21.4739 11.8736 21.4739C17.1056 21.4739 21.3473 17.2322 21.3473 12.0002C21.3473 6.76817 17.1056 2.52649 11.8736 2.52649ZM19.968 10.6183L18.7219 10.828C18.6587 10.4534 18.5633 10.0802 18.4376 9.71828L19.6307 9.30396C19.7798 9.73154 19.8928 10.1736 19.968 10.6183ZM19.0806 8.06417L17.9728 8.67112C17.7896 8.33638 17.5768 8.01428 17.3412 7.71365L18.3341 6.93428C18.6132 7.28796 18.864 7.6688 19.0806 8.06417ZM12.5261 3.81554L12.425 5.07491C12.0448 5.04396 11.6564 5.04712 11.2768 5.07744L11.172 3.81996C11.6185 3.78144 12.0802 3.77954 12.5261 3.81554ZM9.83428 4.04481L10.1463 5.26881C9.77744 5.36291 9.41365 5.48923 9.06438 5.64396L8.55217 4.48944C8.96586 4.30565 9.39723 4.15723 9.83428 4.04481ZM7.36417 5.1387L8.05828 6.19344C7.73996 6.40312 7.43681 6.64123 7.15575 6.90144L6.29744 5.97302C6.62965 5.6667 6.98902 5.38502 7.36417 5.1387ZM5.38102 6.97217L6.38144 7.74523C6.14523 8.05028 5.93428 8.37428 5.75428 8.70838L4.6427 8.10775C4.85554 7.71428 5.10375 7.33217 5.38102 6.97217ZM4.10017 9.35259L5.29512 9.75996C5.17259 10.1219 5.07912 10.4958 5.01849 10.8709L3.77112 10.6688C3.84375 10.2235 3.95428 9.78081 4.10017 9.35259ZM3.66312 12.0172L4.92628 12.0134C4.92754 12.3974 4.95975 12.7833 5.02228 13.1585L3.77617 13.3669C3.70291 12.9242 3.66438 12.4701 3.66312 12.0172ZM4.65786 15.9204C4.44059 15.5231 4.25681 15.105 4.10965 14.6806L5.30459 14.2688C5.42838 14.6275 5.58375 14.9806 5.76628 15.316L4.65786 15.9204ZM6.32144 18.0482C5.98733 17.7412 5.67786 17.4065 5.40249 17.0528L6.39786 16.276C6.63091 16.5747 6.89302 16.8583 7.17596 17.1185L6.32144 18.0482ZM8.58375 19.5248C8.16944 19.3435 7.76712 19.1263 7.39007 18.88L8.08291 17.8227C8.39996 18.0311 8.73975 18.2143 9.09028 18.3678L8.58375 19.5248ZM11.2061 20.1835C10.7545 20.1475 10.3042 20.0736 9.86839 19.9638L10.1766 18.7391C10.5448 18.8313 10.925 18.8932 11.3071 18.9248L11.2061 20.1835ZM12.5583 20.1835L12.4534 18.9248C12.8349 18.8926 13.2158 18.8294 13.5859 18.7353L13.8953 19.96C13.4589 20.0705 13.0086 20.1456 12.5583 20.1835ZM13.5574 5.25807L13.8619 4.03217C14.2995 4.14144 14.7322 4.28796 15.1471 4.46796L14.6425 5.62628C14.2926 5.47344 13.9275 5.35028 13.5574 5.25807ZM15.1787 19.5179L14.6678 18.3621C15.0189 18.2073 15.3581 18.0235 15.6764 17.8151L16.3686 18.8711C15.9928 19.1181 15.593 19.3353 15.1787 19.5179ZM15.653 6.17007L16.3414 5.11154C16.7198 5.35723 17.0798 5.63575 17.4126 5.94017L16.56 6.87302C16.2789 6.6147 15.9732 6.37849 15.653 6.17007ZM17.4372 18.0393L16.5814 17.1103C16.8638 16.8501 17.1246 16.5665 17.3583 16.2659L18.3549 17.0421C18.0789 17.3964 17.7701 17.7318 17.4372 18.0393ZM19.097 15.9071L17.9867 15.3052C18.1692 14.968 18.3246 14.6149 18.4471 14.2555L19.6427 14.6648C19.4962 15.0905 19.313 15.5086 19.097 15.9071ZM18.7275 13.144C18.7894 12.7675 18.821 12.3823 18.821 12.0002L19.896 11.973L20.0829 11.9755C20.0842 12.4518 20.0469 12.9059 19.973 13.3499L18.7275 13.144Z" fill="#8B30FF"/>
<path d="M14.5519 15.0818C13.9639 15.0818 13.4431 14.953 12.9895 14.6954C12.5415 14.4322 12.1887 14.0738 11.9311 13.6202C11.6735 13.161 11.5447 12.6346 11.5447 12.041C11.5447 11.4474 11.6735 10.9238 11.9311 10.4702C12.1887 10.011 12.5415 9.65264 12.9895 9.39504C13.4431 9.13184 13.9639 9.00024 14.5519 9.00024C15.0055 9.00024 15.4143 9.07864 15.7783 9.23544C16.1423 9.39224 16.4559 9.61064 16.7191 9.89064C16.9823 10.1706 17.1839 10.4954 17.3239 10.865L15.8455 11.3354C15.7671 11.1506 15.6663 10.991 15.5431 10.8566C15.4199 10.7166 15.2743 10.6102 15.1063 10.5374C14.9439 10.4646 14.7591 10.4282 14.5519 10.4282C14.2775 10.4282 14.0339 10.4982 13.8211 10.6382C13.6083 10.7726 13.4403 10.9602 13.3171 11.201C13.1995 11.4418 13.1407 11.7218 13.1407 12.041C13.1407 12.3546 13.2023 12.6346 13.3255 12.881C13.4487 13.1218 13.6167 13.3122 13.8295 13.4522C14.0479 13.5866 14.2971 13.6538 14.5771 13.6538C14.7955 13.6538 14.9831 13.6174 15.1399 13.5446C15.3023 13.4662 15.4395 13.3598 15.5515 13.2254C15.6691 13.0854 15.7699 12.923 15.8539 12.7382L17.3323 13.2086C17.1979 13.5782 16.9991 13.9058 16.7359 14.1914C16.4727 14.4714 16.1563 14.6898 15.7867 14.8466C15.4171 15.0034 15.0055 15.0818 14.5519 15.0818Z" fill="white"/>
<path d="M9.06313 15.0839C8.75637 15.0839 8.46163 15.0475 8.17892 14.9747C7.90223 14.8963 7.6496 14.7926 7.42103 14.6638C7.19847 14.5293 7.01501 14.3809 6.87065 14.2184C6.72629 14.0503 6.63607 13.8711 6.59998 13.6806L8.03456 13.3024C8.10073 13.4649 8.21501 13.6078 8.37742 13.731C8.54584 13.8487 8.75637 13.9103 9.009 13.9159C9.25561 13.9215 9.46013 13.8683 9.62253 13.7562C9.79095 13.6442 9.87516 13.4985 9.87516 13.3192C9.87516 13.1792 9.81501 13.0559 9.69471 12.9495C9.58043 12.8431 9.41501 12.7618 9.19847 12.7058L8.30524 12.4957C7.99246 12.4229 7.71877 12.308 7.48419 12.1512C7.25561 11.9943 7.07516 11.8038 6.94283 11.5798C6.81652 11.3501 6.75336 11.0896 6.75336 10.7982C6.75336 10.2324 6.95486 9.79265 7.35787 9.47893C7.76088 9.1596 8.3293 8.99994 9.06313 8.99994C9.46614 8.99994 9.81802 9.05316 10.1188 9.1596C10.4195 9.26044 10.6752 9.4117 10.8857 9.61338C11.1022 9.81506 11.2737 10.0672 11.4 10.3697L9.97441 10.7646C9.92629 10.6134 9.82103 10.4761 9.65862 10.3529C9.50223 10.2296 9.29772 10.168 9.04509 10.168C8.79246 10.168 8.59396 10.2212 8.4496 10.3277C8.31125 10.4341 8.24208 10.5882 8.24208 10.7898C8.24208 10.9299 8.29922 11.0475 8.41351 11.1428C8.5278 11.2324 8.68419 11.2996 8.88268 11.3445L9.77592 11.5545C10.2872 11.6722 10.6842 11.8935 10.9669 12.2184C11.2556 12.5377 11.4 12.9019 11.4 13.3108C11.4 13.6806 11.3067 13.9971 11.1203 14.2604C10.9398 14.5237 10.6752 14.7282 10.3263 14.8739C9.97742 15.0139 9.55637 15.0839 9.06313 15.0839Z" fill="white"/>
</svg>
