<svg width="24" height="24" viewBox="0 0 24 24" fill="none" xmlns="http://www.w3.org/2000/svg">
<path fill-rule="evenodd" clip-rule="evenodd" d="M0.15595 10.2802L2.02568e-05 10.4369C0.675822 5.129 4.75434 0.890048 9.96713 -1.10433e-05L12.0329 2.07623L14.0919 0.0069057C19.2391 0.903724 23.2722 5.06731 24 10.2953L21.9263 12.3795L23.8905 14.3536C22.9276 19.2842 19.0017 23.1476 14.0533 23.9932L12.0329 21.9626L10.0058 24C5.0795 23.1754 1.15904 19.3613 0.152918 14.4757L0.15595 14.4788L2.24469 12.3795L0.15595 10.2802Z" fill="white"/>
<path d="M12.0102 2.38977C6.73114 2.38977 2.45129 6.69124 2.45129 11.997C2.45129 17.3027 6.73114 21.6042 12.0102 21.6042C17.2893 21.6042 21.5691 17.3027 21.5691 11.997C21.5691 6.69124 17.2893 2.38977 12.0102 2.38977ZM20.1774 10.5956L18.92 10.8082C18.8563 10.4284 18.7601 10.0499 18.6333 9.68292L19.8371 9.26277C19.9875 9.69637 20.1015 10.1447 20.1774 10.5956ZM19.282 8.0055L18.1643 8.621C17.9795 8.28155 17.7647 7.95491 17.527 7.65004L18.5288 6.85968C18.8104 7.21835 19.0634 7.60456 19.282 8.0055ZM12.6685 3.69699L12.5665 4.97411C12.1829 4.94273 11.791 4.94593 11.408 4.97667L11.3022 3.70147C11.7528 3.66241 12.2186 3.66048 12.6685 3.69699ZM9.9525 3.92949L10.2673 5.17074C9.89515 5.26617 9.52809 5.39426 9.17568 5.55118L8.65886 4.38038C9.07627 4.194 9.51152 4.04349 9.9525 3.92949ZM7.46017 5.0388L8.16052 6.1084C7.83934 6.32104 7.53346 6.5625 7.24987 6.82638L6.38384 5.88487C6.71904 5.57424 7.08164 5.28858 7.46017 5.0388ZM5.45917 6.89811L6.46859 7.68206C6.23026 7.99141 6.01741 8.31998 5.83579 8.65879L4.71421 8.0497C4.92897 7.65068 5.17941 7.26319 5.45917 6.89811ZM4.1668 9.31208L5.3725 9.72519C5.24887 10.0922 5.15456 10.4714 5.09338 10.8518L3.83479 10.6468C3.90807 10.1953 4.0196 9.74633 4.1668 9.31208ZM3.72582 12.0143L5.00034 12.0104C5.00162 12.3998 5.03412 12.7912 5.0972 13.1716L3.83989 13.383C3.76596 12.934 3.72709 12.4735 3.72582 12.0143ZM4.7295 15.9724C4.51029 15.5696 4.32484 15.1456 4.17636 14.7152L5.38206 14.2976C5.50696 14.6614 5.66373 15.0194 5.8479 15.3595L4.7295 15.9724ZM6.40805 18.1302C6.07094 17.8189 5.75868 17.4795 5.48084 17.1208L6.48516 16.333C6.72031 16.636 6.98477 16.9236 7.27027 17.1874L6.40805 18.1302ZM8.69072 19.6277C8.27268 19.4438 7.86674 19.2235 7.4863 18.9737L8.18537 17.9016C8.50528 18.1129 8.84813 18.2987 9.20181 18.4543L8.69072 19.6277ZM11.3366 20.2957C10.881 20.2592 10.4266 20.1842 9.98691 20.0728L10.2979 18.8309C10.6694 18.9244 11.0531 18.9872 11.4386 19.0192L11.3366 20.2957ZM12.701 20.2957L12.5952 19.0192C12.9801 18.9865 13.3644 18.9225 13.7378 18.8271L14.0501 20.069C13.6097 20.181 13.1554 20.2573 12.701 20.2957ZM13.7092 5.15985L14.0163 3.91668C14.4579 4.02748 14.8945 4.17607 15.3131 4.35861L14.804 5.53325C14.4509 5.37825 14.0826 5.25336 13.7092 5.15985ZM15.345 19.6206L14.8295 18.4485C15.1838 18.2916 15.526 18.1052 15.8472 17.8939L16.5456 18.9648C16.1664 19.2152 15.7631 19.4355 15.345 19.6206ZM15.8236 6.0847L16.5182 5.01126C16.8999 5.2604 17.2632 5.54286 17.599 5.85157L16.7387 6.79756C16.4551 6.5356 16.1467 6.29606 15.8236 6.0847ZM17.6239 18.1213L16.7604 17.1791C17.0452 16.9152 17.3084 16.6277 17.5442 16.3228L18.5498 17.1099C18.2713 17.4692 17.9597 17.8093 17.6239 18.1213ZM19.2986 15.959L18.1783 15.3486C18.3624 15.0066 18.5192 14.6486 18.6428 14.2841L19.8492 14.6992C19.7013 15.1308 19.5165 15.5548 19.2986 15.959ZM18.9258 13.1569C18.9882 12.7752 19.0201 12.3845 19.0201 11.997L20.1047 11.9694L20.2933 11.972C20.2946 12.4549 20.257 12.9154 20.1825 13.3657L18.9258 13.1569Z" fill="#F4A203"/>
<path d="M9.24391 14.9853C8.63911 14.9853 8.10431 14.8565 7.63951 14.5989C7.17471 14.3357 6.81071 13.9773 6.54751 13.5237C6.28431 13.0645 6.15271 12.5381 6.15271 11.9445C6.15271 11.3509 6.28431 10.8273 6.54751 10.3737C6.81071 9.91449 7.17471 9.55609 7.63951 9.29849C8.10431 9.03529 8.63911 8.90369 9.24391 8.90369C9.64151 8.90369 9.99151 8.95969 10.2939 9.07169C10.6019 9.18369 10.8679 9.33769 11.0919 9.53369C11.3159 9.72409 11.5063 9.94529 11.6631 10.1973L10.3695 10.9617C10.2911 10.8385 10.1903 10.7293 10.0671 10.6341C9.94951 10.5389 9.81791 10.4661 9.67231 10.4157C9.53231 10.3597 9.38951 10.3317 9.24391 10.3317C8.95271 10.3317 8.69511 10.4017 8.47111 10.5417C8.24711 10.6761 8.07071 10.8637 7.94191 11.1045C7.81311 11.3453 7.74871 11.6253 7.74871 11.9445C7.74871 12.2581 7.81031 12.5381 7.93351 12.7845C8.05671 13.0309 8.23311 13.2241 8.46271 13.3641C8.69791 13.5041 8.97231 13.5741 9.28591 13.5741C9.50991 13.5741 9.70871 13.5349 9.88231 13.4565C10.0559 13.3725 10.1931 13.2577 10.2939 13.1121C10.3947 12.9609 10.4451 12.7873 10.4451 12.5913L11.9235 12.3141C11.9235 12.9077 11.8087 13.4033 11.5791 13.8009C11.3495 14.1985 11.0331 14.4953 10.6299 14.6913C10.2323 14.8873 9.77031 14.9853 9.24391 14.9853ZM9.13471 12.7677V11.5917H11.9235V12.4569L11.0415 12.7677H9.13471Z" fill="white"/>
<path d="M15.263 14.9853C14.675 14.9853 14.1542 14.8565 13.7006 14.5989C13.2526 14.3357 12.8998 13.9773 12.6422 13.5237C12.3846 13.0645 12.2558 12.5381 12.2558 11.9445C12.2558 11.3509 12.3846 10.8273 12.6422 10.3737C12.8998 9.91449 13.2526 9.55609 13.7006 9.29849C14.1542 9.03529 14.675 8.90369 15.263 8.90369C15.7166 8.90369 16.1254 8.98209 16.4894 9.13889C16.8534 9.29569 17.167 9.51409 17.4302 9.79409C17.6934 10.0741 17.895 10.3989 18.035 10.7685L16.5566 11.2389C16.4782 11.0541 16.3774 10.8945 16.2542 10.7601C16.131 10.6201 15.9854 10.5137 15.8174 10.4409C15.655 10.3681 15.4702 10.3317 15.263 10.3317C14.9886 10.3317 14.745 10.4017 14.5322 10.5417C14.3194 10.6761 14.1514 10.8637 14.0282 11.1045C13.9106 11.3453 13.8518 11.6253 13.8518 11.9445C13.8518 12.2581 13.9134 12.5381 14.0366 12.7845C14.1598 13.0253 14.3278 13.2157 14.5406 13.3557C14.759 13.4901 15.0082 13.5573 15.2882 13.5573C15.5066 13.5573 15.6942 13.5209 15.851 13.4481C16.0134 13.3697 16.1506 13.2633 16.2626 13.1289C16.3802 12.9889 16.481 12.8265 16.565 12.6417L18.0434 13.1121C17.909 13.4817 17.7102 13.8093 17.447 14.0949C17.1838 14.3749 16.8674 14.5933 16.4978 14.7501C16.1282 14.9069 15.7166 14.9853 15.263 14.9853Z" fill="white"/>
</svg>
